<?xml version="1.0" encoding="utf-8"?>
<!-- Generator: Adobe Illustrator 19.2.0, SVG Export Plug-In . SVG Version: 6.00 Build 0)  -->
<svg version="1.1" id="Layer_1" xmlns="http://www.w3.org/2000/svg" xmlns:xlink="http://www.w3.org/1999/xlink" x="0px" y="0px"
	 viewBox="0 0 1280 800" style="enable-background:new 0 0 1280 800;" xml:space="preserve">
<style type="text/css">
	.st0{fill:#2A7BB3;}
	.st1{fill:#1E2369;}
	.st2{fill:#3D4281;}
	.st3{fill:#00BFBA;}
	.st4{fill:#779CE2;}
	.st5{fill:#F7E04A;}
	.st6{fill:#1D2567;}
</style>
<g>
	<path class="st0" d="M704.6,656.6h-158V207.2c0-56.8,46.1-102.9,102.9-102.9h55.1V656.6z"/>
	<path class="st1" d="M699.1,656.6h25.4V271c0-25-0.5-166.7-25.4-166.7h0V656.6z"/>
	<path class="st2" d="M793.8,656.6h-79.1V429.8c0-29.1,19.7-54.5,47.8-61.8l31.3-8.1V656.6z"/>
	<path class="st3" d="M843.4,656.6h-109V413.5c0-39.2,31.8-71,71-71h38V656.6z"/>
	<polygon class="st2" points="556.5,656.6 477.4,656.6 516.9,221.5 556.5,241.3 	"/>
	<polygon class="st3" points="516.9,656.6 437.8,656.6 437.8,241.3 516.9,221.5 	"/>
	<path class="st2" d="M635.6,656.6h-49.4l-39.5-306.5l0,0c12.2,7.4,89,129.9,89,168.1V656.6z"/>
	<path class="st4" d="M615.8,656.6h-69.2V350.1h0c21.3,7.4,69.2,129.9,69.2,168.1V656.6z"/>
	<g>
		<g>
			<path class="st5" d="M638.1,605.4c-33.1,0-88.1-11.4-162.4-66c-44.2-32.5-74.9-65.4-75.2-65.7c-1.4-1.5-1.3-3.9,0.2-5.3
				c1.5-1.4,3.9-1.3,5.3,0.2c0.3,0.3,30.6,32.8,74.3,64.8c40.1,29.4,100,64.4,157.9,64.4c57.9,0,117.8-35.1,158-64.5
				c43.7-32,73.9-64.4,74.2-64.8c1.4-1.5,3.8-1.6,5.3-0.2c1.5,1.4,1.6,3.8,0.2,5.3c-0.3,0.3-31,33.3-75.2,65.7
				C759.4,569.6,698,605.4,638.1,605.4z"/>
		</g>
		<g>
			<path class="st5" d="M1107.8,605.4c-59.9,0-121.4-35.9-162.4-66c-44.2-32.5-74.9-65.4-75.2-65.7c-1.4-1.5-1.3-3.9,0.2-5.3
				c1.5-1.4,3.9-1.3,5.3,0.2c0.3,0.3,30.6,32.8,74.3,64.8c40.1,29.4,100,64.4,157.9,64.4c2.1,0,3.7,1.7,3.7,3.7
				S1109.9,605.4,1107.8,605.4z"/>
		</g>
		<g>
			<path class="st5" d="M167.1,605.4c-2.1,0-3.7-1.7-3.7-3.7s1.7-3.7,3.7-3.7c57.8,0,117.8-35,157.9-64.4c43.7-32,74-64.5,74.3-64.8
				c1.4-1.5,3.8-1.6,5.3-0.2c1.5,1.4,1.6,3.8,0.2,5.3c-0.3,0.3-31,33.3-75.2,65.7C288.4,569.6,227,605.4,167.1,605.4z"/>
		</g>
		<g>
			<path class="st5" d="M433.1,594.2h-3.9c-2,0-3.6-1.6-3.6-3.6v-71c0-2,1.6-3.6,3.6-3.6h3.9c2,0,3.6,1.6,3.6,3.6v71
				C436.8,592.6,435.1,594.2,433.1,594.2z"/>
			<path class="st5" d="M455.5,594.2h-3.9c-2,0-3.6-1.6-3.6-3.6V542c0-2,1.6-3.6,3.6-3.6h3.9c2,0,3.6,1.6,3.6,3.6v48.6
				C459.1,592.6,457.5,594.2,455.5,594.2z"/>
			<path class="st5" d="M476.8,594.2h-3.9c-2,0-3.6-1.6-3.6-3.6v-37.5c0-2,1.6-3.6,3.6-3.6h3.9c2,0,3.6,1.6,3.6,3.6v37.5
				C480.4,592.6,478.8,594.2,476.8,594.2z"/>
			<path class="st5" d="M500.2,594.2h-3.9c-2,0-3.6-1.6-3.6-3.6v-15.1c0-2,1.6-3.6,3.6-3.6h3.9c2,0,3.6,1.6,3.6,3.6v15.1
				C503.9,592.6,502.2,594.2,500.2,594.2z"/>
			<path class="st5" d="M902.9,594.2H899c-2,0-3.6-1.6-3.6-3.6v-71c0-2,1.6-3.6,3.6-3.6h3.9c2,0,3.6,1.6,3.6,3.6v71
				C906.5,592.6,904.9,594.2,902.9,594.2z"/>
			<path class="st5" d="M925.2,594.2h-3.9c-2,0-3.6-1.6-3.6-3.6V542c0-2,1.6-3.6,3.6-3.6h3.9c2,0,3.6,1.6,3.6,3.6v48.6
				C928.9,592.6,927.2,594.2,925.2,594.2z"/>
			<path class="st5" d="M946.5,594.2h-3.9c-2,0-3.6-1.6-3.6-3.6v-37.5c0-2,1.6-3.6,3.6-3.6h3.9c2,0,3.6,1.6,3.6,3.6v37.5
				C950.1,592.6,948.5,594.2,946.5,594.2z"/>
			<path class="st5" d="M970,594.2h-3.9c-2,0-3.6-1.6-3.6-3.6v-15.1c0-2,1.6-3.6,3.6-3.6h3.9c2,0,3.6,1.6,3.6,3.6v15.1
				C973.6,592.6,972,594.2,970,594.2z"/>
			<path class="st5" d="M823.5,594.2h-3.9c-2,0-3.6-1.6-3.6-3.6v-47.8c0-2,1.6-3.6,3.6-3.6h3.9c2,0,3.6,1.6,3.6,3.6v47.8
				C827.1,592.6,825.5,594.2,823.5,594.2z"/>
			<path class="st5" d="M846.9,594.2H843c-2,0-3.6-1.6-3.6-3.6v-71c0-2,1.6-3.6,3.6-3.6h3.9c2,0,3.6,1.6,3.6,3.6v71
				C850.6,592.6,848.9,594.2,846.9,594.2z"/>
			<path class="st5" d="M778.7,594.2h-3.9c-2,0-3.6-1.6-3.6-3.6v-15.1c0-2,1.6-3.6,3.6-3.6h3.9c2,0,3.6,1.6,3.6,3.6v15.1
				C782.4,592.6,780.8,594.2,778.7,594.2z"/>
			<path class="st5" d="M802.2,594.2h-3.9c-2,0-3.6-1.6-3.6-3.6v-37.5c0-2,1.6-3.6,3.6-3.6h3.9c2,0,3.6,1.6,3.6,3.6v37.5
				C805.8,592.6,804.2,594.2,802.2,594.2z"/>
			<path class="st5" d="M353.7,594.2h-3.9c-2,0-3.6-1.6-3.6-3.6v-47.8c0-2,1.6-3.6,3.6-3.6h3.9c2,0,3.6,1.6,3.6,3.6v47.8
				C357.4,592.6,355.7,594.2,353.7,594.2z"/>
			<path class="st5" d="M377.2,594.2h-3.9c-2,0-3.6-1.6-3.6-3.6v-71c0-2,1.6-3.6,3.6-3.6h3.9c2,0,3.6,1.6,3.6,3.6v71
				C380.8,592.6,379.2,594.2,377.2,594.2z"/>
			<path class="st5" d="M309,594.2h-3.9c-2,0-3.6-1.6-3.6-3.6v-15.1c0-2,1.6-3.6,3.6-3.6h3.9c2,0,3.6,1.6,3.6,3.6v15.1
				C312.6,592.6,311,594.2,309,594.2z"/>
			<path class="st5" d="M332.5,594.2h-3.9c-2,0-3.6-1.6-3.6-3.6v-37.5c0-2,1.6-3.6,3.6-3.6h3.9c2,0,3.6,1.6,3.6,3.6v37.5
				C336.1,592.6,334.5,594.2,332.5,594.2z"/>
		</g>
	</g>
	<g>
		<path class="st6" d="M407.1,694.9h-7.8c-4,0-7.3-3.3-7.3-7.3V467.3c0-4,3.3-7.3,7.3-7.3h7.8c4,0,7.3,3.3,7.3,7.3v220.3
			C414.4,691.6,411.1,694.9,407.1,694.9z"/>
		<path class="st6" d="M876.8,694.9H869c-4,0-7.3-3.3-7.3-7.3V467.3c0-4,3.3-7.3,7.3-7.3h7.8c4,0,7.3,3.3,7.3,7.3v220.3
			C884.1,691.6,880.9,694.9,876.8,694.9z"/>
		<path class="st6" d="M161.5,620.5v-7.8c0-4,3.3-7.3,7.3-7.3h942.9c4,0,7.3,3.3,7.3,7.3v7.8c0,4-3.3,7.3-7.3,7.3H168.8
			C164.8,627.8,161.5,624.5,161.5,620.5z"/>
	</g>
</g>
</svg>
