<?xml version="1.0" encoding="utf-8"?>
<!-- Generator: Adobe Illustrator 19.2.0, SVG Export Plug-In . SVG Version: 6.00 Build 0)  -->
<svg version="1.1" id="Layer_1" xmlns="http://www.w3.org/2000/svg" xmlns:xlink="http://www.w3.org/1999/xlink" x="0px" y="0px"
	 viewBox="0 0 1280 800" style="enable-background:new 0 0 1280 800;" xml:space="preserve">
<style type="text/css">
	.st0{fill:#6CA28C;}
	.st1{fill:#00BFBA;}
	.st2{fill:#4352A2;}
	.st3{fill:#5D8070;}
	.st4{fill:#6A474D;}
	.st5{fill:#424459;}
	.st6{fill:#2A7BB3;}
	.st7{fill:#3D4281;}
	.st8{fill:#6B72DA;}
</style>
<g>
	<polygon class="st0" points="957.8,519 305.8,519 478.4,193 785.2,193 	"/>
	<ellipse class="st1" cx="631.8" cy="193" rx="153.4" ry="19.2"/>
	<ellipse class="st2" cx="578.5" cy="193" rx="51.1" ry="6.4"/>
	<polygon class="st3" points="387.9,363.6 535.9,308.1 648.8,467.9 742.6,375.7 823.5,461.5 811.8,243.4 957.8,519 305.8,519 	"/>
	<polygon class="st4" points="305.8,519 373.5,390.8 440,410.3 478.4,451.2 742.6,375.7 957.8,519 	"/>
	<g>
		<path class="st1" d="M874.3,351.2c7.3-5.1,9-15.2,3.8-22.4s-22.7-19.6-30-14.5c0,0,10.3,9.3,17.1,19
			C872.1,342.9,874.3,351.2,874.3,351.2z"/>
		<path class="st1" d="M874.2,351.1c1.3-8.8-4.8-17-13.6-18.3s-29.9,2.9-31.2,11.7c0,0,13.9-1,25.6,0.7
			C866.7,346.9,874.2,351.1,874.2,351.1z"/>
		<g>
			<path class="st4" d="M867.8,339.9c-0.6-0.4-1.5-0.2-2.1,0.6c-0.5,0.7-0.5,1.7,0.1,2.1c17.2,12.4,26,37.9,30.3,57.2
				c4.7,21,5.3,39.2,5.3,39.4c0,0.8,0.7,1.4,1.5,1.2c0.8-0.2,1.5-1,1.4-1.9c0-0.2-0.6-18.7-5.3-39.9
				C894.6,378.9,885.6,352.7,867.8,339.9z"/>
		</g>
		<path class="st5" d="M873.8,351.3c5.1-7.3,3.3-17.3-4-22.4c-7.3-5.1-28.1-10.8-33.1-3.5c0,0,12.9,5.3,22.6,12
			S873.8,351.3,873.8,351.3z"/>
		<path class="st5" d="M878.9,356.1c-2.6-7.7-11-11.8-18.6-9.2c-7.7,2.6-23.1,14.8-20.5,22.5c0,0,10.8-6.6,21.1-10.1
			C871.1,355.8,878.9,356.1,878.9,356.1z"/>
		<path class="st5" d="M878.8,356.1c-7.4-3.4-16.1-0.2-19.5,7.2c-3.4,7.4-5.2,26.9,2.2,30.3c0,0,2.7-12.4,7.2-22.2
			C873.2,361.6,878.8,356.1,878.8,356.1z"/>
		<path class="st5" d="M878.7,356c-7.2-6.9-7.4-18.3-0.5-25.4c6.9-7.2,28.4-17.9,35.6-11c0,0-13,8.6-22.1,18.1S878.7,356,878.7,356z
			"/>
		<path class="st5" d="M878.8,355.9c0.1-9.9,8.2-18,18.1-17.9c9.9,0.1,32.6,8.2,32.5,18.2c0,0-15.2-3.5-28.4-3.5
			C887.8,352.5,878.8,355.9,878.8,355.9z"/>
		<path class="st1" d="M878.8,356.5c-5.1-6.3-14.3-7.4-20.6-2.3c-6.3,5.1-16.7,21.8-11.6,28.1c0,0,8-9.9,16.4-16.6
			S878.8,356.5,878.8,356.5z"/>
		<path class="st1" d="M879.3,356.1c-4.4-8.9-0.7-19.7,8.2-24.1c8.9-4.4,32.8-7.2,37.2,1.7c0,0-15.1,3.7-27,9.5
			C885.9,349.1,879.3,356.1,879.3,356.1z"/>
	</g>
	<g>
		<path class="st1" d="M912.3,291c-11.9-4.7-17.8-18.1-13.1-30.1c4.7-11.9,25-35.3,37-30.7c0,0-11.2,16.6-17.4,32.5
			C912.5,278.6,912.3,291,912.3,291z"/>
		<path class="st1" d="M912.4,290.8c-4.8-11.9,0.9-25.4,12.7-30.2c11.9-4.8,42.9-6.2,47.7,5.6c0,0-19.8,3.4-35.5,9.8
			C921.5,282.4,912.4,290.8,912.4,290.8z"/>
		<g>
			<path class="st4" d="M917.5,272.8c0.7-0.8,2.1-0.8,3.1,0.1s1.3,2.2,0.5,3.1c-19.8,23.3-23.3,62-22.7,90.4
				c0.7,31,6.2,56.7,6.2,56.9c0.3,1.2-0.5,2.2-1.7,2.2c-1.2,0-2.4-0.9-2.6-2.1c-0.1-0.3-5.6-26.3-6.3-57.7
				C893.4,336.7,896.9,297,917.5,272.8z"/>
		</g>
		<path class="st5" d="M913,290.9c-9.6-8.5-10.6-23.1-2.1-32.7s35.5-24.7,45.2-16.3c0,0-16.2,11.8-27.4,24.6
			C917.4,279.3,913,290.9,913,290.9z"/>
		<path class="st5" d="M907.5,299.4c1-11.6,11.3-20.3,22.9-19.3c11.6,1,37.4,12.7,36.4,24.4c0,0-17.5-5.5-32.9-6.8
			S907.5,299.4,907.5,299.4z"/>
		<path class="st5" d="M907.7,299.4c9.1-7.3,22.4-5.8,29.8,3.3c7.3,9.1,16.6,35.9,7.5,43.2c0,0-8.1-16.4-17.8-28.6
			S907.7,299.4,907.7,299.4z"/>
		<path class="st5" d="M907.8,299.2c7.6-12.1,4-28.1-8.1-35.8c-12.1-7.6-46-15.2-53.6-3.1c0,0,21.1,7.6,37.2,17.7
			S907.8,299.2,907.8,299.2z"/>
		<path class="st5" d="M907.6,299c-3.5-13.9-17.6-22.3-31.5-18.8s-42.7,22.8-39.2,36.7c0,0,20-10.1,38.5-14.7
			C893.8,297.5,907.6,299,907.6,299z"/>
		<path class="st1" d="M907.8,300c4.9-10.6,17.5-15.3,28.1-10.4c10.6,4.9,30.9,24.7,26,35.3c0,0-14.6-11.1-28.7-17.6
			C919,300.8,907.8,300,907.8,300z"/>
		<path class="st1" d="M907,299.6c3.1-14-5.8-27.8-19.8-30.9c-14-3.1-48.4,1.3-51.5,15.3c0,0,22.4-0.1,41,4S907,299.6,907,299.6z"/>
	</g>
	<g>
		<path class="st1" d="M920.4,372.3c-4.9-1.9-7.4-7.5-5.4-12.5c1.9-4.9,10.4-14.7,15.3-12.7c0,0-4.6,6.9-7.2,13.5
			C920.5,367.2,920.4,372.3,920.4,372.3z"/>
		<path class="st1" d="M920.4,372.2c-2-4.9,0.4-10.5,5.3-12.5c4.9-2,17.8-2.6,19.8,2.3c0,0-8.2,1.4-14.7,4.1
			S920.4,372.2,920.4,372.2z"/>
		<g>
			<path class="st4" d="M922.5,364.8c0.3-0.3,0.9-0.3,1.3,0c0.4,0.4,0.5,0.9,0.2,1.3c-8.2,9.7-9.7,25.7-9.4,37.5
				c0.3,12.8,2.6,23.5,2.6,23.6c0.1,0.5-0.2,0.9-0.7,0.9c-0.5,0-1-0.4-1.1-0.9c0-0.1-2.3-10.9-2.6-23.9
				C912.5,391.3,914,374.8,922.5,364.8z"/>
		</g>
		<path class="st5" d="M920.7,372.3c-4-3.5-4.4-9.6-0.9-13.6c3.5-4,14.7-10.3,18.7-6.8c0,0-6.7,4.9-11.4,10.2
			S920.7,372.3,920.7,372.3z"/>
		<path class="st5" d="M918.4,375.8c0.4-4.8,4.7-8.4,9.5-8c4.8,0.4,15.5,5.3,15.1,10.1c0,0-7.2-2.3-13.7-2.8
			S918.4,375.8,918.4,375.8z"/>
		<path class="st5" d="M918.5,375.8c3.8-3,9.3-2.4,12.3,1.4c3,3.8,6.9,14.9,3.1,17.9c0,0-3.3-6.8-7.4-11.8
			C922.5,378.2,918.5,375.8,918.5,375.8z"/>
		<path class="st5" d="M918.5,375.7c3.2-5,1.7-11.7-3.4-14.8c-5-3.2-19.1-6.3-22.2-1.3c0,0,8.8,3.1,15.4,7.3
			C915,371.1,918.5,375.7,918.5,375.7z"/>
		<path class="st5" d="M918.4,375.6c-1.5-5.8-7.3-9.3-13.1-7.8c-5.8,1.5-17.7,9.4-16.3,15.2c0,0,8.3-4.2,16-6.1
			C912.7,375,918.4,375.6,918.4,375.6z"/>
		<path class="st1" d="M918.5,376c2-4.4,7.2-6.3,11.7-4.3c4.4,2,12.8,10.2,10.8,14.6c0,0-6-4.6-11.9-7.3
			C923.2,376.4,918.5,376,918.5,376z"/>
		<path class="st1" d="M918.2,375.9c1.3-5.8-2.4-11.5-8.2-12.8s-20.1,0.5-21.4,6.3c0,0,9.3,0,17,1.7
			C913.4,372.7,918.2,375.9,918.2,375.9z"/>
	</g>
	<polygon class="st1" points="444.3,519 1115.4,519 1096.3,423 866.1,423 827.8,405 731.9,405 655.2,481.2 	"/>
	<polygon class="st6" points="770.3,405 808.6,442 1096,442 1096,423 866.1,423 827.8,405 	"/>
	<path class="st7" d="M962.9,519h50.6v-38.4C994.4,480.6,962.9,511.9,962.9,519z"/>
	<path class="st8" d="M1062.8,519h-49.3v-38.4C1031.6,480.6,1062.8,511.9,1062.8,519z"/>
	<g>
		<path class="st1" d="M328.5,382.6c-11.9-4.7-17.8-18.1-13.1-30.1c4.7-11.9,25-35.3,37-30.7c0,0-11.2,16.6-17.4,32.5
			C328.7,370.2,328.5,382.6,328.5,382.6z"/>
		<path class="st1" d="M328.5,382.4c-4.8-11.9,0.9-25.4,12.7-30.2s42.9-6.2,47.7,5.6c0,0-19.8,3.4-35.5,9.8
			C337.6,374,328.5,382.4,328.5,382.4z"/>
		<g>
			<path class="st4" d="M333.7,364.5c0.7-0.8,2.1-0.8,3.1,0.1s1.3,2.2,0.5,3.1c-19.8,23.3-23.3,62-22.7,90.4
				c0.7,31,6.2,56.7,6.2,56.9c0.3,1.2-0.5,2.2-1.7,2.2c-1.2,0-2.4-0.9-2.6-2.1c-0.1-0.3-5.6-26.3-6.3-57.7
				C309.6,428.3,313.1,388.6,333.7,364.5z"/>
		</g>
		<path class="st5" d="M329.2,382.5c-9.6-8.5-10.6-23.1-2.1-32.7c8.5-9.6,35.5-24.7,45.2-16.3c0,0-16.2,11.8-27.4,24.6
			C333.6,370.9,329.2,382.5,329.2,382.5z"/>
		<path class="st5" d="M323.6,391c1-11.6,11.3-20.3,22.9-19.3c11.6,1,37.4,12.7,36.4,24.4c0,0-17.5-5.5-32.9-6.8
			S323.6,391,323.6,391z"/>
		<path class="st5" d="M323.9,391c9.1-7.3,22.4-5.8,29.8,3.3c7.3,9.1,16.6,35.9,7.5,43.2c0,0-8.1-16.4-17.8-28.6
			C333.6,396.8,323.9,391,323.9,391z"/>
		<path class="st5" d="M324,390.8c7.6-12.1,4-28.1-8.1-35.8c-12.1-7.6-46-15.2-53.6-3.1c0,0,21.1,7.6,37.2,17.7
			C315.6,379.8,324,390.8,324,390.8z"/>
		<path class="st5" d="M323.7,390.7c-3.5-13.9-17.6-22.3-31.5-18.8c-13.9,3.5-42.7,22.8-39.2,36.7c0,0,20-10.1,38.5-14.7
			C310,389.1,323.7,390.7,323.7,390.7z"/>
		<path class="st1" d="M323.9,391.6c4.9-10.6,17.5-15.3,28.1-10.4c10.6,4.9,30.9,24.7,26,35.3c0,0-14.6-11.1-28.7-17.6
			C335.2,392.5,323.9,391.6,323.9,391.6z"/>
		<path class="st1" d="M323.2,391.2c3.1-14-5.8-27.8-19.8-30.9c-14-3.1-48.4,1.3-51.5,15.3c0,0,22.4-0.1,41,4
			S323.2,391.2,323.2,391.2z"/>
	</g>
	<g>
		<path class="st1" d="M232.4,407.5c7.6-10.3,5.4-24.8-4.9-32.4s-40-16.5-47.6-6.2c0,0,18.3,8.1,32.1,18.2
			C225.6,397.1,232.4,407.5,232.4,407.5z"/>
		<path class="st1" d="M232.2,407.3c-2.2-12.6-14.3-21-26.9-18.8c-12.6,2.2-39.6,17.6-37.3,30.2c0,0,18.5-7.7,35.3-10.7
			C220,405,232.2,407.3,232.2,407.3z"/>
		<g>
			<path class="st4" d="M218.3,394.9c-1-0.3-2.2,0.4-2.6,1.7c-0.4,1.3,0.1,2.5,1.2,2.9c29.2,9.1,52.8,40.1,67.4,64.4
				c15.9,26.5,25,51.2,25.1,51.5c0.4,1.1,1.6,1.6,2.6,1c1-0.6,1.5-2.1,1.1-3.2c-0.1-0.2-9.3-25.3-25.4-52.2
				C272.7,436,248.5,404.3,218.3,394.9z"/>
		</g>
		<path class="st5" d="M231.7,407.7c3.6-12.3-3.4-25.2-15.7-28.8c-12.3-3.6-43.3-2-46.9,10.3c0,0,20,1.4,36.3,6.2
			S231.7,407.7,231.7,407.7z"/>
		<path class="st5" d="M240.9,412c-7.1-9.3-20.3-11.1-29.7-4.1s-24.9,30.7-17.8,40c0,0,11.8-13.9,24.2-23.3
			C230.1,415.2,240.9,412,240.9,412z"/>
		<path class="st5" d="M240.7,412.1c-11.6-1.3-22.1,7-23.4,18.7c-1.3,11.6,5.1,39.2,16.7,40.5c0,0-1.9-18.2-0.2-33.6
			C235.6,422.2,240.7,412.1,240.7,412.1z"/>
		<path class="st5" d="M240.6,412c-12.9-6.2-18.4-21.7-12.2-34.6c6.2-12.9,30.7-37.4,43.7-31.2c0,0-13.8,17.6-22,34.8
			C241.8,398.2,240.6,412,240.6,412z"/>
		<path class="st5" d="M240.7,411.7c-4.4-13.6,3-28.3,16.6-32.7c13.6-4.4,48.3-3.5,52.7,10.1c0,0-22.3,2.2-40.4,8.1
			S240.7,411.7,240.7,411.7z"/>
		<path class="st1" d="M241,412.7c-9.8-6.4-22.9-3.6-29.3,6.2c-6.4,9.8-13,37.3-3.1,43.7c0,0,6.4-17.1,14.9-30.2
			C231.9,419.4,241,412.7,241,412.7z"/>
		<path class="st1" d="M241.4,411.9c-10.1-10.2-9.9-26.6,0.3-36.7c10.2-10.1,41.6-24.7,51.7-14.5c0,0-19,11.9-32.5,25.3
			C247.2,399.3,241.4,411.9,241.4,411.9z"/>
	</g>
	<g>
		<path class="st1" d="M280.8,433.2c5.3-7.2,3.7-17.2-3.4-22.5c-7.2-5.3-27.8-11.5-33-4.3c0,0,12.7,5.6,22.3,12.6
			C276.1,426,280.8,433.2,280.8,433.2z"/>
		<path class="st1" d="M280.7,433c-1.6-8.8-9.9-14.6-18.7-13s-27.5,12.2-25.9,21c0,0,12.8-5.3,24.5-7.4
			C272.2,431.5,280.7,433,280.7,433z"/>
		<g>
			<path class="st4" d="M271,424.4c-0.7-0.2-1.5,0.3-1.8,1.2c-0.3,0.9,0.1,1.8,0.8,2c20.3,6.3,36.6,27.8,46.8,44.7
				c11.1,18.4,17.4,35.6,17.4,35.7c0.3,0.8,1.1,1.1,1.8,0.7c0.7-0.4,1.1-1.4,0.8-2.2c-0.1-0.2-6.4-17.5-17.6-36.2
				C308.8,453,292,431,271,424.4z"/>
		</g>
		<path class="st5" d="M280.3,433.3c2.5-8.5-2.3-17.5-10.9-20s-30-1.4-32.5,7.2c0,0,13.9,1,25.2,4.3S280.3,433.3,280.3,433.3z"/>
		<path class="st5" d="M286.7,436.3c-4.9-6.5-14.1-7.7-20.6-2.8s-17.3,21.3-12.4,27.8c0,0,8.2-9.7,16.8-16.2
			S286.7,436.3,286.7,436.3z"/>
		<path class="st5" d="M286.6,436.4c-8.1-0.9-15.3,4.9-16.2,12.9c-0.9,8.1,3.5,27.2,11.6,28.1c0,0-1.3-12.6-0.1-23.3
			S286.6,436.4,286.6,436.4z"/>
		<path class="st5" d="M286.5,436.3c-9-4.3-12.8-15-8.5-24c4.3-9,21.3-26,30.3-21.7c0,0-9.6,12.2-15.3,24.2S286.5,436.3,286.5,436.3
			z"/>
		<path class="st5" d="M286.6,436.1c-3.1-9.4,2.1-19.6,11.5-22.7c9.4-3.1,33.5-2.4,36.6,7c0,0-15.5,1.5-28,5.6
			C294.1,430.1,286.6,436.1,286.6,436.1z"/>
		<path class="st1" d="M286.8,436.8c-6.8-4.4-15.9-2.5-20.3,4.3c-4.4,6.8-9,25.9-2.2,30.3c0,0,4.4-11.9,10.3-20.9
			C280.5,441.4,286.8,436.8,286.8,436.8z"/>
		<path class="st1" d="M287.1,436.2c-7-7.1-6.9-18.5,0.2-25.5c7.1-7,28.9-17.2,35.9-10.1c0,0-13.2,8.3-22.6,17.5
			S287.1,436.2,287.1,436.2z"/>
	</g>
</g>
</svg>
