<?xml version="1.0" encoding="utf-8"?>
<!-- Generator: Adobe Illustrator 19.2.0, SVG Export Plug-In . SVG Version: 6.00 Build 0)  -->
<svg version="1.1" id="Layer_1" xmlns="http://www.w3.org/2000/svg" xmlns:xlink="http://www.w3.org/1999/xlink" x="0px" y="0px"
	 viewBox="0 0 960 560" style="enable-background:new 0 0 960 560;" xml:space="preserve">
<style type="text/css">
	.st0{fill:#D0003B;}
	.st1{fill:#F7E04A;}
	.st2{fill:#1D2567;}
	.st3{fill:#00BFBA;}
	.st4{fill:#6A474D;}
	.st5{fill:#424459;}
	.st6{fill:#0A062E;}
	.st7{fill:#779CE2;}
	.st8{fill:#D7C2B6;}
	.st9{fill:#2A7BB3;}
	.st10{fill:#1E2369;}
	.st11{fill:#3D4281;}
	.st12{fill:#FFDA84;}
	.st13{fill:#9A2B41;}
</style>
<path class="st0" d="M912.9,406.3c0-205.3-181.5-371.5-405.4-371.5S102.1,201,102.1,406.3c0,41.6,7.5,82.7,21.2,118.7h768.4
	C905.4,489,912.9,447.9,912.9,406.3z"/>
<g>
	<g>
		<g>
			<path class="st1" d="M469.1,457.1c-25.1,0-66.8-8.7-123.2-50.1c-33.5-24.6-56.9-49.6-57.1-49.9c-1.1-1.2-1-3,0.2-4
				c1.2-1.1,3-1,4,0.2c0.2,0.3,23.2,24.9,56.4,49.2c30.5,22.3,75.9,48.9,119.9,48.9s89.5-26.6,119.9-48.9
				c33.2-24.3,56-48.9,56.3-49.1c1.1-1.2,2.9-1.2,4-0.2c1.2,1.1,1.2,2.9,0.2,4c-0.2,0.3-23.6,25.3-57.1,49.9
				C561.2,429.9,514.6,457.1,469.1,457.1z"/>
		</g>
		<g>
			<path class="st1" d="M825.6,457.1c-45.5,0-92.1-27.2-123.2-50.1c-33.5-24.6-56.9-49.6-57.1-49.9c-1.1-1.2-1-3,0.2-4
				c1.2-1.1,3-1,4,0.2c0.2,0.3,23.2,24.9,56.4,49.2c30.5,22.3,75.9,48.9,119.9,48.9c1.5,0,2.8,1.2,2.8,2.8
				C828.4,455.9,827.2,457.1,825.6,457.1z"/>
		</g>
		<g>
			<path class="st1" d="M111.6,457.1c-1.5,0-2.8-1.2-2.8-2.8s1.2-2.8,2.8-2.8c43.9,0,89.4-26.6,119.9-48.9
				c33.2-24.3,56.1-49,56.4-49.2c1.1-1.2,2.9-1.2,4-0.2c1.2,1.1,1.2,2.9,0.2,4c-0.2,0.3-23.6,25.3-57.1,49.9
				C203.7,429.9,157,457.1,111.6,457.1z"/>
		</g>
		<g>
			<path class="st1" d="M312.8,448.7h-1.4c-1.9,0-3.5-1.5-3.5-3.5v-52.4c0-1.9,1.5-3.5,3.5-3.5h1.4c1.9,0,3.5,1.5,3.5,3.5v52.4
				C316.3,447.1,314.7,448.7,312.8,448.7z"/>
			<path class="st1" d="M329.7,448.7h-1.4c-1.9,0-3.5-1.5-3.5-3.5v-35.5c0-1.9,1.5-3.5,3.5-3.5h1.4c1.9,0,3.5,1.5,3.5,3.5v35.5
				C333.3,447.1,331.7,448.7,329.7,448.7z"/>
			<path class="st1" d="M345.9,448.7h-1.4c-1.9,0-3.5-1.5-3.5-3.5v-26.9c0-1.9,1.5-3.5,3.5-3.5h1.4c1.9,0,3.5,1.5,3.5,3.5v26.9
				C349.4,447.1,347.8,448.7,345.9,448.7z"/>
			<path class="st1" d="M363.7,448.7h-1.4c-1.9,0-3.5-1.5-3.5-3.5v-10c0-1.9,1.5-3.5,3.5-3.5h1.4c1.9,0,3.5,1.5,3.5,3.5v10
				C367.2,447.1,365.7,448.7,363.7,448.7z"/>
			<path class="st1" d="M669.3,448.7h-1.4c-1.9,0-3.5-1.5-3.5-3.5v-52.4c0-1.9,1.5-3.5,3.5-3.5h1.4c1.9,0,3.5,1.5,3.5,3.5v52.4
				C672.8,447.1,671.3,448.7,669.3,448.7z"/>
			<path class="st1" d="M686.4,448.7h-1.4c-1.9,0-3.5-1.5-3.5-3.5v-35.5c0-1.9,1.5-3.5,3.5-3.5h1.4c1.9,0,3.5,1.5,3.5,3.5v35.5
				C689.8,447.1,688.3,448.7,686.4,448.7z"/>
			<path class="st1" d="M702.5,448.7h-1.4c-1.9,0-3.5-1.5-3.5-3.5v-26.9c0-1.9,1.5-3.5,3.5-3.5h1.4c1.9,0,3.5,1.5,3.5,3.5v26.9
				C706,447.1,704.4,448.7,702.5,448.7z"/>
			<path class="st1" d="M720.3,448.7h-1.4c-1.9,0-3.5-1.5-3.5-3.5v-10c0-1.9,1.5-3.5,3.5-3.5h1.4c1.9,0,3.5,1.5,3.5,3.5v10
				C723.8,447.1,722.2,448.7,720.3,448.7z"/>
			<path class="st1" d="M609.1,448.7h-1.4c-1.9,0-3.5-1.5-3.5-3.5v-34.9c0-1.9,1.5-3.5,3.5-3.5h1.4c1.9,0,3.5,1.5,3.5,3.5v34.9
				C612.5,447.1,611,448.7,609.1,448.7z"/>
			<path class="st1" d="M626.9,448.7h-1.4c-1.9,0-3.5-1.5-3.5-3.5v-52.4c0-1.9,1.5-3.5,3.5-3.5h1.4c1.9,0,3.5,1.5,3.5,3.5v52.4
				C630.4,447.1,628.8,448.7,626.9,448.7z"/>
			<path class="st1" d="M575.1,448.7h-1.4c-1.9,0-3.5-1.5-3.5-3.5v-10c0-1.9,1.5-3.5,3.5-3.5h1.4c1.9,0,3.5,1.5,3.5,3.5v10
				C578.6,447.1,577.1,448.7,575.1,448.7z"/>
			<path class="st1" d="M592.9,448.7h-1.4c-1.9,0-3.5-1.5-3.5-3.5v-26.9c0-1.9,1.5-3.5,3.5-3.5h1.4c1.9,0,3.5,1.5,3.5,3.5v26.9
				C596.4,447.1,594.8,448.7,592.9,448.7z"/>
			<path class="st1" d="M252.6,448.7h-1.4c-1.9,0-3.5-1.5-3.5-3.5v-34.9c0-1.9,1.5-3.5,3.5-3.5h1.4c1.9,0,3.5,1.5,3.5,3.5v34.9
				C256,447.1,254.5,448.7,252.6,448.7z"/>
			<path class="st1" d="M270.3,448.7h-1.5c-1.9,0-3.5-1.5-3.5-3.5v-52.4c0-1.9,1.5-3.5,3.5-3.5h1.4c1.9,0,3.5,1.5,3.5,3.5v52.4
				C273.8,447.1,272.3,448.7,270.3,448.7z"/>
			<path class="st1" d="M218.5,448.7h-1.4c-1.9,0-3.5-1.5-3.5-3.5v-10c0-1.9,1.5-3.5,3.5-3.5h1.4c1.9,0,3.5,1.5,3.5,3.5v10
				C222.1,447.1,220.5,448.7,218.5,448.7z"/>
			<path class="st1" d="M236.4,448.7H235c-1.9,0-3.5-1.5-3.5-3.5v-26.9c0-1.9,1.5-3.5,3.5-3.5h1.4c1.9,0,3.5,1.5,3.5,3.5v26.9
				C239.9,447.1,238.3,448.7,236.4,448.7z"/>
		</g>
	</g>
	<g>
		<path class="st2" d="M292.4,525.1h-3c-3.8,0-7-3.2-7-7V353.8c0-3.8,3.2-7,7-7h3c3.8,0,7,3.2,7,7v164.3
			C299.3,521.9,296.2,525.1,292.4,525.1z"/>
		<path class="st2" d="M648.9,525.1h-3c-3.8,0-7-3.2-7-7V353.8c0-3.8,3.2-7,7-7h3c3.8,0,7,3.2,7,7v164.3
			C655.9,521.9,652.7,525.1,648.9,525.1z"/>
		<path class="st2" d="M107.3,467.1v-3c0-3.8,3.2-7,7-7h712.8c3.8,0,7,3.2,7,7v3c0,3.8-3.2,7-7,7H114.3
			C110.5,474.2,107.3,471,107.3,467.1z"/>
	</g>
</g>
<g>
	<path class="st3" d="M128.9,390.5c-11.7-4.6-17.5-17.8-12.9-29.5s24.6-34.7,36.3-30.1c0,0-11,16.3-17.1,31.9
		C129.1,378.3,128.9,390.5,128.9,390.5z"/>
	<path class="st3" d="M129,390.2c-4.7-11.6,0.9-24.9,12.5-29.7s42.1-6.1,46.8,5.5c0,0-19.4,3.3-34.9,9.6
		C137.9,382,129,390.2,129,390.2z"/>
	<g>
		<path class="st4" d="M134,372.6c0.7-0.8,2.1-0.8,3,0.1c1,0.8,1.2,2.2,0.5,3c-19.5,22.9-22.8,60.9-22.2,88.8
			c0.7,30.4,6.1,55.6,6.1,55.9c0.3,1.2-0.5,2.1-1.7,2.2c-1.2,0-2.3-0.9-2.6-2.1c-0.1-0.3-5.5-25.9-6.2-56.6
			C110.4,435.3,113.9,396.3,134,372.6z"/>
	</g>
	<path class="st5" d="M129.7,390.3c-9.4-8.3-10.4-22.7-2.1-32.1s34.9-24.3,44.3-16c0,0-15.9,11.6-26.9,24.2S129.7,390.3,129.7,390.3
		z"/>
	<path class="st5" d="M124.2,398.7c1-11.4,11.1-19.9,22.5-18.9s36.7,12.5,35.7,23.9c0,0-17.1-5.4-32.3-6.7
		C134.9,395.7,124.2,398.7,124.2,398.7z"/>
	<path class="st5" d="M124.4,398.7c9-7.2,22-5.7,29.2,3.2c7.2,9,16.3,35.2,7.3,42.4c0,0-7.9-16.1-17.5-28
		C133.9,404.4,124.4,398.7,124.4,398.7z"/>
	<path class="st5" d="M124.5,398.5c7.5-11.9,3.9-27.6-8-35.1s-45.1-15-52.6-3.1c0,0,20.7,7.4,36.5,17.4S124.5,398.5,124.5,398.5z"/>
	<path class="st5" d="M124.3,398.3c-3.4-13.6-17.3-21.9-30.9-18.4s-41.9,22.3-38.5,36c0,0,19.7-9.9,37.8-14.5
		S124.3,398.3,124.3,398.3z"/>
	<path class="st3" d="M124.5,399.3c4.8-10.4,17.2-15,27.6-10.2c10.4,4.8,30.3,24.2,25.5,34.6c0,0-14.3-10.9-28.1-17.3
		C135.6,400.1,124.5,399.3,124.5,399.3z"/>
	<path class="st3" d="M123.8,398.9c3-13.7-5.7-27.3-19.4-30.3s-47.5,1.2-50.5,15c0,0,22-0.1,40.3,4
		C112.3,391.5,123.8,398.9,123.8,398.9z"/>
</g>
<g>
	<path class="st3" d="M74.3,432.8c5.2-7,3.7-16.9-3.4-22.1c-7-5.2-27.3-11.3-32.4-4.2c0,0,12.5,5.5,21.8,12.4
		C69.7,425.7,74.3,432.8,74.3,432.8z"/>
	<path class="st3" d="M74.2,432.6c-1.5-8.6-9.7-14.3-18.3-12.8s-27,12-25.4,20.6c0,0,12.6-5.2,24-7.3
		C65.9,431.1,74.2,432.6,74.2,432.6z"/>
	<g>
		<path class="st4" d="M64.7,424.2c-0.7-0.2-1.5,0.3-1.8,1.2c-0.3,0.9,0.1,1.7,0.8,2c19.9,6.2,36,27.3,45.9,43.9
			c10.9,18.1,17,34.9,17.1,35.1c0.3,0.8,1.1,1.1,1.8,0.6c0.7-0.4,1-1.4,0.8-2.2c-0.1-0.2-6.3-17.2-17.3-35.5
			C101.8,452.2,85.3,430.6,64.7,424.2z"/>
	</g>
	<path class="st5" d="M73.9,432.9c2.5-8.4-2.3-17.2-10.7-19.6c-8.4-2.5-29.5-1.3-31.9,7c0,0,13.6,0.9,24.8,4.2
		S73.9,432.9,73.9,432.9z"/>
	<path class="st5" d="M80.2,435.8c-4.8-6.3-13.9-7.6-20.2-2.8s-17,21-12.2,27.3c0,0,8.1-9.5,16.5-15.9
		C72.8,438,80.2,435.8,80.2,435.8z"/>
	<path class="st5" d="M80,435.9c-7.9-0.9-15.1,4.8-15.9,12.7c-0.9,7.9,3.5,26.7,11.4,27.6c0,0-1.3-12.4-0.1-22.9
		C76.5,442.8,80,435.9,80,435.9z"/>
	<path class="st5" d="M79.9,435.8c-8.8-4.2-12.5-14.8-8.3-23.6c4.2-8.8,20.9-25.5,29.7-21.3c0,0-9.4,12-15,23.7
		C80.7,426.5,79.9,435.8,79.9,435.8z"/>
	<path class="st5" d="M80,435.7c-3-9.3,2-19.2,11.3-22.3s32.9-2.4,35.9,6.9c0,0-15.2,1.5-27.5,5.5C87.4,429.8,80,435.7,80,435.7z"/>
	<path class="st3" d="M80.2,436.3c-6.7-4.3-15.6-2.4-19.9,4.2c-4.3,6.7-8.8,25.4-2.1,29.8c0,0,4.4-11.7,10.1-20.6
		S80.2,436.3,80.2,436.3z"/>
	<path class="st3" d="M80.5,435.8c-6.9-6.9-6.8-18.1,0.2-25c6.9-6.9,28.3-16.9,35.2-9.9c0,0-12.9,8.1-22.2,17.2
		C84.5,427.2,80.5,435.8,80.5,435.8z"/>
</g>
<g>
	<path class="st3" d="M130.2,432.6c-8-3.1-11.9-12.2-8.8-20.2s16.8-23.7,24.8-20.5c0,0-7.5,11.1-11.7,21.8
		C130.4,424.3,130.2,432.6,130.2,432.6z"/>
	<path class="st3" d="M130.3,432.5c-3.2-8,0.6-17,8.5-20.3c8-3.2,28.7-4.2,32,3.8c0,0-13.2,2.2-23.8,6.6
		C136.4,426.8,130.3,432.5,130.3,432.5z"/>
	<g>
		<path class="st4" d="M133.7,420.5c0.5-0.6,1.4-0.5,2.1,0c0.7,0.6,0.8,1.5,0.4,2c-13.3,15.6-15.6,41.6-15.2,60.6
			c0.5,20.7,4.1,38,4.2,38.2c0.2,0.8-0.3,1.5-1.1,1.5c-0.8,0-1.6-0.6-1.8-1.4c0-0.2-3.8-17.7-4.2-38.7
			C117.6,463.3,119.9,436.6,133.7,420.5z"/>
	</g>
	<path class="st5" d="M130.7,432.5c-6.5-5.7-7.1-15.5-1.4-21.9c5.7-6.5,23.8-16.6,30.3-10.9c0,0-10.8,7.9-18.4,16.5
		C133.7,424.8,130.7,432.5,130.7,432.5z"/>
	<path class="st5" d="M127,438.3c0.7-7.8,7.5-13.6,15.4-12.9c7.8,0.7,25.1,8.5,24.4,16.3c0,0-11.7-3.7-22.1-4.6
		C134.3,436.2,127,438.3,127,438.3z"/>
	<path class="st5" d="M127.2,438.3c6.1-4.9,15-3.9,19.9,2.2s11.1,24,5,28.9c0,0-5.4-11-11.9-19.1
		C133.7,442.1,127.2,438.3,127.2,438.3z"/>
	<path class="st5" d="M127.2,438.2c5.1-8.1,2.7-18.9-5.4-24S91,404,85.9,412.1c0,0,14.1,5.1,24.9,11.9S127.2,438.2,127.2,438.2z"/>
	<path class="st5" d="M127.1,438c-2.4-9.3-11.8-14.9-21.1-12.6S77.3,440.7,79.7,450c0,0,13.4-6.8,25.8-9.9S127.1,438,127.1,438z"/>
	<path class="st3" d="M127.2,438.7c3.3-7.1,11.7-10.2,18.8-6.9c7.1,3.3,20.7,16.5,17.4,23.7c0,0-9.8-7.4-19.2-11.8
		C134.8,439.2,127.2,438.7,127.2,438.7z"/>
	<path class="st3" d="M126.7,438.4c2.1-9.4-3.9-18.6-13.3-20.7S81,418.5,79,427.9c0,0,15,0,27.5,2.7S126.7,438.4,126.7,438.4z"/>
</g>
<g>
	<path class="st6" d="M157.8,306c2.6-56.7,18.5-212.4,18.5-212.4s35.2,142.1,38.9,212.4"/>
	<path class="st7" d="M196.7,93.6c0,0,23.4,141.6,27.1,211.8c3.7,70.2,0.9,164.5,0.9,164.5H157c0,0-2.8-107.8-0.2-164.5
		S196.7,93.6,196.7,93.6z"/>
	<path class="st8" d="M265,481.4v43.7c-1,1.5-156,1.5-156,0v-43.7c6-15.3,38.6-27,78-27S259,466.1,265,481.4z"/>
</g>
<g>
	<path class="st9" d="M853.7,525h-88V305.3c0-48.6,39.4-88,88-88l0,0V525z"/>
	<path class="st10" d="M850.7,525h14.2V310.1c0-13.9-0.3-92.9-14.2-92.9l0,0V525z"/>
	<path class="st11" d="M903.4,525h-44.1V398.7c0-16.2,11-30.4,26.6-34.4l17.4-4.5L903.4,525L903.4,525z"/>
	<path class="st3" d="M931.1,525h-60.7V410.8c0-33.5,27.2-60.7,60.7-60.7l0,0V525z"/>
	<polygon class="st11" points="771.2,525 727.1,525 749.2,282.6 771.2,293.6 	"/>
	<polygon class="st3" points="749.2,525 705.1,525 705.1,293.6 749.2,282.6 	"/>
	<path class="st11" d="M815.3,525h-27.5l-22-170.8l0,0c6.8,4.1,49.6,72.4,49.6,93.7L815.3,525L815.3,525z"/>
	<path class="st7" d="M804.3,525h-38.6V354.2l0,0c11.9,4.1,38.6,72.4,38.6,93.7V525z"/>
</g>
<g>
	<polygon class="st12" points="665.7,486 582,486 582,525 665.7,525 750,525 750,486 	"/>
	<path class="st6" d="M722.6,464h-56.9h-3.8h-53.1c-8.3,12-33.6,18-61.1,24h114.2h3.8h118C755.9,482,730.5,476,722.6,464z"/>
	<rect x="585.6" y="497.8" class="st13" width="16.9" height="16.9"/>
	<rect x="606.7" y="497.8" class="st13" width="16.9" height="16.9"/>
	<rect x="627.8" y="497.8" class="st13" width="16.9" height="16.9"/>
	<path class="st7" d="M665.7,440.9c0,0-44.3,19.1-56.9,15.5l21.1,31.6h35.8h35.8l21.1-31.6C710,460,665.7,440.9,665.7,440.9z"/>
	<path class="st11" d="M608.8,456.4l21.1,31.6h35.8h35.8l21.1-31.4C684.7,467.3,646.7,467.1,608.8,456.4z"/>
	<rect x="728.9" y="497.7" class="st13" width="16.9" height="16.9"/>
	<rect x="707.8" y="497.7" class="st13" width="16.9" height="16.9"/>
	<rect x="686.7" y="497.7" class="st13" width="16.9" height="16.9"/>
	<polygon class="st13" points="665.7,498 658,498 658,525 665.7,525 674,525 674,498 	"/>
</g>
</svg>
