<?xml version="1.0" encoding="utf-8"?>
<!-- Generator: Adobe Illustrator 19.2.0, SVG Export Plug-In . SVG Version: 6.00 Build 0)  -->
<svg version="1.1" id="Layer_1" xmlns="http://www.w3.org/2000/svg" xmlns:xlink="http://www.w3.org/1999/xlink" x="0px" y="0px"
	 viewBox="0 0 1280 800" style="enable-background:new 0 0 1280 800;" xml:space="preserve">
<style type="text/css">
	.st0{fill:#424459;}
	.st1{fill:#636782;}
	.st2{fill:#9A2B41;}
	.st3{fill:#F69DC4;}
	.st4{fill:#EA9D00;}
	.st5{fill:#6A474D;}
	.st6{fill:#946A53;}
	.st7{fill:#6B72DA;}
	.st8{fill:#93D2B3;}
	.st9{fill:#FFDA84;}
	.st10{fill:#78C3A9;}
	.st11{fill:#6CA28C;}
	.st12{fill:#8A2E25;stroke:#B00000;stroke-width:3;stroke-miterlimit:10;}
	.st13{fill:none;stroke:#779CE2;stroke-width:3;stroke-miterlimit:10;}
	.st14{fill:#779CE2;}
	.st15{fill:#B00000;}
	.st16{fill:#004F76;}
</style>
<g>
	<path class="st0" d="M191.2,498.1h117.2V283.3C265.2,283.3,191.2,458.5,191.2,498.1z"/>
	<path class="st1" d="M425.5,498.1H308.4V283.3C351.5,283.3,425.5,458.5,425.5,498.1z"/>
	<path class="st0" d="M288.8,488.3H406v-97.6C362.9,390.7,288.8,470.3,288.8,488.3z"/>
	<path class="st1" d="M523.2,488.3H406v-97.6C449.1,390.7,523.2,470.3,523.2,488.3z"/>
	<g>
		<path class="st2" d="M452.2,332.1h-4.5c-1.5,0-2.7-1.2-2.7-2.7v-63c0-1.5,1.2-2.7,2.7-2.7h4.5c1.5,0,2.7,1.2,2.7,2.7v63
			C454.8,330.9,453.6,332.1,452.2,332.1z"/>
		<path class="st3" d="M259.5,494.7v-5.6c0-1.8,1.5-3.3,3.3-3.3h22.6c1.8,0,3.3,1.5,3.3,3.3v5.6c0,1.8-1.5,3.3-3.3,3.3h-22.6
			C261,498.1,259.5,496.6,259.5,494.7z"/>
		<path class="st3" d="M454.8,494.7v-5.6c0-1.8,1.5-3.3,3.3-3.3h22.6c1.8,0,3.3,1.5,3.3,3.3v5.6c0,1.8-1.5,3.3-3.3,3.3h-22.6
			C456.3,498.1,454.8,496.6,454.8,494.7z"/>
		<path class="st2" d="M471.7,498.1h-4.5c-1.5,0-2.7-1.2-2.7-2.7v-229c0-1.5,1.2-2.7,2.7-2.7h4.5c1.5,0,2.7,1.2,2.7,2.7v229
			C474.3,496.9,473.1,498.1,471.7,498.1z"/>
		<path class="st2" d="M432.6,332.1h-4.5c-1.5,0-2.7-1.2-2.7-2.7v-72.8c0-1.5,1.2-2.7,2.7-2.7h4.5c1.5,0,2.7,1.2,2.7,2.7v72.8
			C435.3,330.9,434.1,332.1,432.6,332.1z"/>
		<path class="st2" d="M413.1,332.1h-4.5c-1.5,0-2.7-1.2-2.7-2.7v-82.6c0-1.5,1.2-2.7,2.7-2.7h4.5c1.5,0,2.7,1.2,2.7,2.7v82.6
			C415.8,330.9,414.6,332.1,413.1,332.1z"/>
		<path class="st2" d="M374.1,332.1h-4.5c-1.5,0-2.7-1.2-2.7-2.7v-92.3c0-1.5,1.2-2.7,2.7-2.7h4.5c1.5,0,2.7,1.2,2.7,2.7v92.3
			C376.7,330.9,375.5,332.1,374.1,332.1z"/>
		<path class="st2" d="M335,332.1h-4.5c-1.5,0-2.7-1.2-2.7-2.7v-82.6c0-1.5,1.2-2.7,2.7-2.7h4.5c1.5,0,2.7,1.2,2.7,2.7v82.6
			C337.7,330.9,336.5,332.1,335,332.1z"/>
		<path class="st2" d="M315.5,332.1H311c-1.5,0-2.7-1.2-2.7-2.7v-72.8c0-1.5,1.2-2.7,2.7-2.7h4.5c1.5,0,2.7,1.2,2.7,2.7v72.8
			C318.1,330.9,316.9,332.1,315.5,332.1z"/>
		<path class="st2" d="M295.9,332.1h-4.5c-1.5,0-2.7-1.2-2.7-2.7v-63c0-1.5,1.2-2.7,2.7-2.7h4.5c1.5,0,2.7,1.2,2.7,2.7v63
			C298.6,330.9,297.4,332.1,295.9,332.1z"/>
		<path class="st2" d="M276.4,498.1H272c-1.5,0-2.7-1.2-2.7-2.7v-229c0-1.5,1.2-2.7,2.7-2.7h4.5c1.5,0,2.7,1.2,2.7,2.7v229
			C279.1,496.9,277.9,498.1,276.4,498.1z"/>
		<circle class="st4" cx="371.8" cy="263.7" r="19.5"/>
		<path class="st4" d="M493.9,305.4v4.5c0,1.5-1.2,2.7-2.7,2.7H252.4c-1.5,0-2.7-1.2-2.7-2.7l0-4.5c0-1.5,1.2-2.7,2.7-2.7h238.8
			C492.7,302.8,493.9,304,493.9,305.4z"/>
		<path class="st4" d="M493.9,325v4.5c0,1.5-1.2,2.7-2.7,2.7H252.4c-1.5,0-2.7-1.2-2.7-2.7l0-4.5c0-1.5,1.2-2.7,2.7-2.7h238.8
			C492.7,322.3,493.9,323.5,493.9,325z"/>
	</g>
	<path class="st5" d="M132.6,527.3h117.2v-97.6C206.6,429.7,132.6,509.4,132.6,527.3z"/>
	<path class="st6" d="M366.9,527.3H249.8v-97.6C292.9,429.7,366.9,509.4,366.9,527.3z"/>
	<g>
		<g>
			<line class="st0" x1="276" y1="488" x2="276" y2="514"/>
			<path class="st0" d="M275,515.4c-0.3,0-1-0.3-1-0.6v-25.2c0-0.3,0.7-0.6,1-0.6s1,0.3,1,0.6v25.2C276,515.2,275.3,515.4,275,515.4
				z"/>
		</g>
		<g>
			<line class="st0" x1="284.3" y1="493.7" x2="274.8" y2="503.2"/>
			<path class="st0" d="M274.8,503.8c-0.1,0-0.3-0.1-0.4-0.2c-0.2-0.2-0.2-0.6,0-0.8l9.5-9.5c0.2-0.2,0.6-0.2,0.8,0s0.2,0.6,0,0.8
				l-9.5,9.5C275.1,503.7,275,503.8,274.8,503.8z"/>
		</g>
		<g>
			<line class="st0" x1="269.4" y1="495.6" x2="274.5" y2="500.7"/>
			<path class="st0" d="M274.5,501.3c-0.1,0-0.3-0.1-0.4-0.2L269,496c-0.2-0.2-0.2-0.6,0-0.8s0.6-0.2,0.8,0l5.1,5.1
				c0.2,0.2,0.2,0.6,0,0.8C274.8,501.3,274.7,501.3,274.5,501.3z"/>
		</g>
		<g>
			<circle class="st0" cx="279.1" cy="480" r="6.3"/>
			<circle class="st0" cx="264.8" cy="491.2" r="3.2"/>
			<circle class="st0" cx="274.6" cy="486.5" r="11.1"/>
			<circle class="st0" cx="285.3" cy="488.5" r="6.3"/>
		</g>
	</g>
	<path class="st7" d="M952.7,371.1H406c0,0,79.3-8.1,103.3-17.3c15.8-6.1,52.9-43.7,52.9-43.7h234.3c0,0,29.6,36.5,44.8,42.6
		C864.4,361.9,952.7,371.1,952.7,371.1z"/>
	<rect x="532.9" y="371.3" class="st8" width="292.9" height="57.4"/>
	<rect x="454.8" y="449.2" class="st8" width="449.1" height="39.1"/>
	<path class="st5" d="M171.7,605.5h185.5V478.5C288.9,478.5,171.7,582.1,171.7,605.5z"/>
	<path class="st6" d="M542.7,605.5H357.2V478.5C425.5,478.5,542.7,582.1,542.7,605.5z"/>
	<path class="st9" d="M953,488H406v175h105v-56.9c0-18.2,9-35,22.3-41.9c4.1-2.1,8.3-3.4,12.9-3.4c19.3-0.3,34.8,20.1,34.8,44.5V663
		h60v-56.9c0-18.2,9.6-35,24.2-41.9c4.5-2.1,8.9-3.4,13.9-3.4c21.1-0.3,37.9,20.1,37.9,44.5V663h61v-56.9c0-18.2,8.5-35,21.8-41.9
		c4.1-2.1,9-3.4,13.6-3.4c19.3-0.3,35.6,20.1,35.6,44.5V663h104V488z"/>
	<g>
		<g>
			<line class="st0" x1="773" y1="603" x2="773" y2="628"/>
			<path class="st0" d="M773,628.2c0,0,0-0.3,0-0.6v-25.2c0-0.3,0-0.6,0-0.6c2,0,0,0.3,0,0.6v25.2C773,628,775,628.2,773,628.2z"/>
		</g>
		<g>
			<line class="st0" x1="784.4" y1="606.5" x2="774.9" y2="616"/>
			<path class="st0" d="M774.6,616.9c-0.1,0,0-0.4-0.1-0.5c-0.2-0.2-0.2-0.6,0-0.8l9.5-9.5c0.2-0.2,0.6-0.2,0.8,0
				c0.2,0.2,0.2,0.6,0,0.8l-9.5,9.5C775.2,616.5,774.8,616.9,774.6,616.9z"/>
		</g>
		<g>
			<line class="st0" x1="769.5" y1="609.5" x2="774.6" y2="614.6"/>
			<path class="st0" d="M774.2,614l-6.2-6.2c-0.2-0.2-0.2-0.6,0-0.8c0.2-0.2,0.6-0.2,0.8,0l5.8,5.8C774.9,613,774.4,614.1,774.2,614
				z"/>
		</g>
		<g>
			<circle class="st10" cx="779.2" cy="592.8" r="6.3"/>
			<circle class="st10" cx="764.9" cy="604.1" r="3.2"/>
			<circle class="st10" cx="774.7" cy="599.3" r="11.1"/>
			<circle class="st10" cx="785.4" cy="601.3" r="6.3"/>
		</g>
	</g>
	<path class="st11" d="M669.6,664h78.1v-48.8C718.9,615.2,669.6,655,669.6,664z"/>
	<g>
		<line class="st0" x1="1044" y1="536" x2="1044" y2="589"/>
		<path class="st0" d="M1045,590.3c0.7,0,1-0.5,1-1.1v-51.5c0-0.6-0.3-1.1-1-1.1s-1,0.5-1,1.1v51.5
			C1044,589.8,1044.3,590.3,1045,590.3z"/>
	</g>
	<g>
		<g>
			<line class="st0" x1="758" y1="570" x2="758" y2="621"/>
			<path class="st0" d="M758.5,623.9c0.7,0,0.5-0.5,0.5-1.1v-51.5c0-0.6,0.2-1.1-0.5-1.1s-0.5,0.5-0.5,1.1v51.5
				C758,623.4,757.8,623.9,758.5,623.9z"/>
		</g>
		<g>
			<line class="st0" x1="737.6" y1="578.5" x2="758.4" y2="597.9"/>
			<path class="st0" d="M758.4,599c0.3,0,0.6-0.1,0.9-0.3c0.5-0.4,0.5-1.2,0-1.6l-20.8-19.4c-0.5-0.4-1.3-0.4-1.7,0s-0.5,1.2,0,1.6
				l20.8,19.4C757.7,598.9,758.1,599,758.4,599z"/>
		</g>
		<g>
			<line class="st0" x1="769.2" y1="583.4" x2="758.7" y2="593.2"/>
			<path class="st0" d="M758.7,594.3c0.3,0,0.6-0.1,0.8-0.3l10.5-9.8c0.4-0.4,0.4-1.1,0-1.5c-0.4-0.4-1.2-0.4-1.6,0l-10.5,9.8
				c-0.4,0.4-0.4,1.1,0,1.5C758.1,594.2,758.4,594.3,758.7,594.3z"/>
		</g>
		<g>
			<ellipse class="st10" cx="748" cy="551.5" rx="13.9" ry="12.9"/>
			<ellipse class="st10" cx="779.3" cy="574.5" rx="6.9" ry="6.5"/>
			<ellipse class="st10" cx="757.8" cy="564.9" rx="24.3" ry="22.6"/>
			<ellipse class="st10" cx="734.4" cy="568.9" rx="13.9" ry="12.9"/>
		</g>
	</g>
	<path class="st10" d="M825.8,664h-78.1v-48.8C776.5,615.2,825.8,655,825.8,664z"/>
	<path class="st10" d="M601.3,664H447v-97.6C503.8,566.4,601.3,646.1,601.3,664z"/>
	<path class="st11" d="M777,664h185.5V556.6C894.2,556.6,777,644.3,777,664z"/>
	<path class="st10" d="M1148,664H962.5V556.6C1030.8,556.6,1148,644.3,1148,664z"/>
	
		<rect x="986.9" y="156.3" transform="matrix(-1 -1.224647e-16 1.224647e-16 -1 1974.0231 332.2162)" class="st12" width="0.2" height="19.5"/>
	
		<rect x="986.9" y="136.8" transform="matrix(-1 -1.224647e-16 1.224647e-16 -1 1974.0231 293.1632)" class="st13" width="0.2" height="19.5"/>
	<rect x="972.3" y="214.9" class="st14" width="29.5" height="29.3"/>
	<rect x="982.2" y="195.4" class="st15" width="9.6" height="19.5"/>
	<rect x="982.2" y="175.9" class="st14" width="9.6" height="19.5"/>
	<polygon class="st14" points="1011.7,255.1 961.8,255.1 952.2,244.2 1020.8,244.2 	"/>
	<rect x="961.8" y="263.7" class="st14" width="49.9" height="283.1"/>
	<rect x="961.4" y="254" class="st16" width="49.9" height="9.8"/>
	<g>
		<rect x="946" y="266.7" class="st16" width="81.9" height="62.3"/>
		<path class="st14" d="M1024.8,269.7v56.3H949v-56.3H1024.8 M1030.8,263.7H943v68.3h87.9V263.7L1030.8,263.7z"/>
	</g>
	<g>
		<rect x="943" y="527.3" class="st14" width="87.9" height="39.1"/>
	</g>
	<g>
		<rect x="894.2" y="556.6" class="st14" width="136.7" height="48.8"/>
	</g>
	<g>
		<rect x="894.2" y="567.5" class="st16" width="136.7" height="27.1"/>
	</g>
	<rect x="943" y="283.3" class="st14" width="87.9" height="9.8"/>
	<rect x="943" y="302.8" class="st14" width="87.9" height="9.8"/>
	<path class="st7" d="M1040.6,449.2H318.1c0,0,84.6-4.7,113.5-10.5c23.6-4.7,101.3-38.3,101.3-38.3h292.9c0,0,71,31.7,92.2,36.2
		C947.2,442.7,1040.6,449.2,1040.6,449.2z"/>
	<g>
		<g>
			<line class="st0" x1="409" y1="533" x2="409" y2="581"/>
			<path class="st0" d="M410.5,582.7c-0.6,0-1.5-0.5-1.5-1.1v-48.8c0-0.6,0.9-1.1,1.5-1.1s1.5,0.5,1.5,1.1v48.8
				C412,582.2,411.1,582.7,410.5,582.7z"/>
		</g>
		<g>
			<line class="st0" x1="429.3" y1="540.7" x2="410.9" y2="559.1"/>
			<path class="st0" d="M410.9,560.1c-0.3,0-0.6-0.1-0.8-0.3c-0.4-0.4-0.4-1.1,0-1.5l18.3-18.3c0.4-0.4,1.1-0.4,1.5,0
				c0.4,0.4,0.4,1.1,0,1.5l-18.3,18.3C411.5,560,411.2,560.1,410.9,560.1z"/>
		</g>
		<g>
			<line class="st0" x1="400.5" y1="544.4" x2="410.4" y2="554.3"/>
			<path class="st0" d="M410.4,555.4c-0.3,0-0.6-0.1-0.8-0.3l-9.9-9.9c-0.4-0.4-0.4-1.1,0-1.5c0.4-0.4,1.1-0.4,1.5,0l9.9,9.9
				c0.4,0.4,0.4,1.1,0,1.5C410.9,555.3,410.7,555.4,410.4,555.4z"/>
		</g>
		<g>
			<circle class="st10" cx="419.1" cy="514.1" r="12.2"/>
			<circle class="st10" cx="391.5" cy="535.9" r="6.1"/>
			<circle class="st10" cx="410.5" cy="526.8" r="21.4"/>
			<circle class="st10" cx="431.1" cy="530.6" r="12.2"/>
		</g>
	</g>
	<g>
		<g>
			<line class="st0" x1="379" y1="567" x2="379" y2="592"/>
			<path class="st0" d="M378.5,592.4c-0.3,0-0.5-0.3-0.5-0.6v-25.2c0-0.3,0.2-0.6,0.5-0.6s0.5,0.3,0.5,0.6v25.2
				C379,592.2,378.8,592.4,378.5,592.4z"/>
		</g>
		<g>
			<line class="st0" x1="389.5" y1="570.7" x2="380.1" y2="580.2"/>
			<path class="st0" d="M380.1,580.8c-0.1,0-0.3-0.1-0.4-0.2c-0.2-0.2-0.2-0.6,0-0.8l9.5-9.5c0.2-0.2,0.6-0.2,0.8,0
				c0.2,0.2,0.2,0.6,0,0.8l-9.5,9.5C380.3,580.7,380.2,580.8,380.1,580.8z"/>
		</g>
		<g>
			<line class="st0" x1="374.6" y1="572.6" x2="379.8" y2="577.8"/>
			<path class="st0" d="M379.8,578.3c-0.1,0-0.3-0.1-0.4-0.2l-5.1-5.1c-0.2-0.2-0.2-0.6,0-0.8c0.2-0.2,0.6-0.2,0.8,0l5.1,5.1
				c0.2,0.2,0.2,0.6,0,0.8C380.1,578.3,379.9,578.3,379.8,578.3z"/>
		</g>
		<g>
			<circle class="st10" cx="384.3" cy="557" r="6.3"/>
			<circle class="st10" cx="370" cy="568.3" r="3.2"/>
			<circle class="st10" cx="379.8" cy="563.5" r="11.1"/>
			<circle class="st10" cx="390.5" cy="565.5" r="6.3"/>
		</g>
	</g>
	<g>
		<g>
			<line class="st0" x1="366" y1="386" x2="366" y2="409"/>
			<path class="st0" d="M365,411.3c-0.3,0-1-0.3-1-0.6v-25.2c0-0.3,0.7-0.6,1-0.6s1,0.3,1,0.6v25.2C366,411,365.3,411.3,365,411.3z"
				/>
		</g>
		<g>
			<line class="st0" x1="374.3" y1="389.6" x2="364.9" y2="399.1"/>
			<path class="st0" d="M364.6,400c-0.1,0,0-0.4-0.1-0.5c-0.2-0.2-0.2-0.6,0-0.8l9.5-9.5c0.2-0.2,0.6-0.2,0.8,0s0.2,0.6,0,0.8
				l-9.5,9.5C365.2,399.6,364.7,400,364.6,400z"/>
		</g>
		<g>
			<line class="st0" x1="359.5" y1="392.6" x2="364.6" y2="397.7"/>
			<path class="st0" d="M364.2,397l-6.2-6.2c-0.2-0.2-0.2-0.6,0-0.8c0.2-0.2,0.6-0.2,0.8,0l5.8,5.8C364.8,396,364.3,397.1,364.2,397
				z"/>
		</g>
		<g>
			<circle class="st0" cx="369.1" cy="375.8" r="6.3"/>
			<circle class="st0" cx="354.8" cy="387.1" r="3.2"/>
			<circle class="st0" cx="364.7" cy="382.4" r="11.1"/>
			<circle class="st0" cx="375.3" cy="384.3" r="6.3"/>
		</g>
	</g>
	<g>
		<g>
			<line class="st0" x1="352" y1="403" x2="352" y2="417"/>
			<path class="st0" d="M352,417.3c0,0,0-0.1,0-0.3v-14.5c0-0.2,0-0.3,0-0.3c1,0,0,0.1,0,0.3V417C352,417.2,353,417.3,352,417.3z"/>
		</g>
		<g>
			<line class="st0" x1="358" y1="404.9" x2="352.6" y2="410.3"/>
			<path class="st0" d="M352.5,410.8c-0.1,0,0-0.2-0.1-0.3c-0.1-0.1-0.1-0.3,0-0.5l5.4-5.4c0.1-0.1,0.3-0.1,0.5,0
				c0.1,0.1,0.1,0.3,0,0.5l-5.4,5.4C352.8,410.6,352.5,410.8,352.5,410.8z"/>
		</g>
		<g>
			<line class="st0" x1="349.5" y1="406.6" x2="352.5" y2="409.5"/>
			<path class="st0" d="M352.2,409.1l-3.6-3.6c-0.1-0.1-0.1-0.3,0-0.5c0.1-0.1,0.3-0.1,0.5,0l3.3,3.3
				C352.6,408.6,352.3,409.2,352.2,409.1z"/>
		</g>
		<g>
			<circle class="st0" cx="355" cy="397" r="3.6"/>
			<circle class="st0" cx="346.9" cy="403.5" r="1.8"/>
			<circle class="st0" cx="352.5" cy="400.7" r="6.4"/>
			<circle class="st0" cx="358.6" cy="401.9" r="3.6"/>
		</g>
	</g>
	<g>
		<g>
			<line class="st0" x1="409" y1="386" x2="409" y2="395"/>
			<path class="st0" d="M409,396c0,0,0-0.1,0-0.2v-10.9c0-0.1,0-0.2,0-0.2s0,0.1,0,0.2v10.9C409,395.9,409,396,409,396z"/>
		</g>
		<g>
			<line class="st0" x1="413.4" y1="386.6" x2="409.3" y2="390.7"/>
			<path class="st0" d="M409.2,391.1c-0.1,0,0-0.2-0.1-0.2c-0.1-0.1-0.1-0.2,0-0.3l4.1-4.1c0.1-0.1,0.2-0.1,0.3,0
				c0.1,0.1,0.1,0.2,0,0.3l-4.1,4.1C409.4,390.9,409.2,391.1,409.2,391.1z"/>
		</g>
		<g>
			<line class="st0" x1="406.9" y1="387.9" x2="409.2" y2="390.1"/>
			<path class="st0" d="M409,389.8l-2.7-2.7c-0.1-0.1-0.1-0.2,0-0.3c0.1-0.1,0.2-0.1,0.3,0l2.5,2.5C409.2,389.4,409,389.9,409,389.8
				z"/>
		</g>
		<g>
			<circle class="st0" cx="411.1" cy="380.7" r="2.7"/>
			<circle class="st0" cx="405" cy="385.6" r="1.4"/>
			<circle class="st0" cx="409.2" cy="383.5" r="4.8"/>
			<circle class="st0" cx="413.8" cy="384.4" r="2.7"/>
		</g>
	</g>
	<g>
		<line class="st0" x1="1024" y1="546" x2="1044.8" y2="565.3"/>
		<path class="st0" d="M1045.2,567.2c0.3,0,0.2-0.8,0.4-1c0.5-0.4,0.5-1.2,0-1.6l-20.8-19.4c-0.5-0.4-1.3-0.4-1.7,0
			c-0.5,0.4-0.5,1.2,0,1.6l20.8,19.4C1044.1,566.4,1044.9,567.2,1045.2,567.2z"/>
	</g>
	<g>
		<line class="st0" x1="1056.6" y1="549.8" x2="1045.4" y2="560.3"/>
		<path class="st0" d="M1046.2,561.1l11.3-10.5c0.5-0.4,0.5-1.2,0-1.6s-1.3-0.4-1.7,0l-10.5,9.8
			C1044.7,559.3,1046,561.3,1046.2,561.1z"/>
	</g>
	<g>
		<ellipse class="st10" cx="1035.5" cy="517.9" rx="13.9" ry="12.9"/>
		<ellipse class="st10" cx="1066.8" cy="540.9" rx="6.9" ry="6.5"/>
		<ellipse class="st10" cx="1045.2" cy="531.2" rx="24.3" ry="22.6"/>
		<ellipse class="st10" cx="1021.9" cy="535.3" rx="13.9" ry="12.9"/>
	</g>
	<path class="st11" d="M292.7,664H447v-97.6C390.2,566.4,292.7,646.1,292.7,664z"/>
</g>
</svg>
